<svg width="607" height="128" viewBox="0 0 607 128" fill="none" xmlns="http://www.w3.org/2000/svg">
<g clip-path="url(#clip0_1_28)">
<path d="M43.5816 81.5413C45.7363 80.4147 47.5189 78.916 48.9229 77.0346C50.3283 75.1653 51.3829 73.0293 52.0843 70.636C52.7909 68.256 53.1416 65.748 53.1416 63.124C53.1416 60.128 52.8589 57.2827 52.2976 54.624C51.7336 51.9414 50.7989 49.572 49.4869 47.516C48.1749 45.4507 46.4389 43.812 44.2843 42.5934C42.1269 41.3734 39.4109 40.7706 36.1296 40.7706C33.3187 40.7706 30.9036 41.328 28.8891 42.4547C26.8744 43.58 25.1853 45.1013 23.8317 47.0173C22.4703 48.9453 21.4864 51.152 20.876 53.636C20.2667 56.1227 19.9625 58.7106 19.9625 61.44C19.9625 64.0653 20.2197 66.6653 20.7375 69.2426C21.2479 71.8093 22.1427 74.132 23.4052 76.1986C24.6735 78.2546 26.3344 79.9506 28.3984 81.2626C30.4599 82.5733 33.0369 83.2253 36.1296 83.2253C38.9429 83.2253 41.4216 82.656 43.5816 81.5413ZM70.9229 105.717C70.1243 109.468 68.4149 112.952 65.7936 116.192C63.1683 119.42 59.3709 122.161 54.4069 124.413C49.4376 126.667 42.7829 127.792 34.4427 127.792C30.8812 127.792 27.2479 127.34 23.5479 126.457C19.8463 125.564 16.4703 124.18 13.4265 122.312C10.3787 120.431 7.85053 118.015 5.83333 115.067C3.82133 112.116 2.67187 108.573 2.38907 104.452H22.212C23.1463 108.203 24.976 110.804 27.6959 112.255C30.4129 113.707 33.5479 114.439 37.1163 114.439C42.7376 114.439 46.8363 112.743 49.4163 109.376C51.9923 105.996 53.2323 101.736 53.1416 96.5786V87.0214H52.8589C50.7003 90.8654 47.6349 93.6987 43.6509 95.5214C39.6683 97.356 35.4736 98.2626 31.0692 98.2626C25.6317 98.2626 20.9463 97.3107 17.0093 95.3827C13.0735 93.4667 9.84267 90.8427 7.3104 87.5107C4.77867 84.188 2.9292 80.2973 1.75733 75.84C0.583866 71.392 0 66.688 0 61.7187C0 57.0267 0.677064 52.5107 2.04106 48.144C3.3948 43.7907 5.388 39.9467 8.01293 36.624C10.6369 33.3027 13.8916 30.644 17.7853 28.6813C21.6692 26.708 26.1479 25.7333 31.212 25.7333C35.9909 25.7333 40.1829 26.616 43.7909 28.392C47.3989 30.18 50.4216 33.176 52.8589 37.392H53.1416V27.6947H72.1189V95.732C72.1189 98.6453 71.7216 101.967 70.9229 105.717Z" fill="white"/>
<path d="M137.347 100.376V90.2494H136.927C134.395 94.4654 131.111 97.5187 127.084 99.3894C123.056 101.271 118.932 102.199 114.711 102.199C109.371 102.199 104.99 101.503 101.571 100.097C98.147 98.6921 95.4536 96.6947 93.4856 94.1174C91.5163 91.5387 90.135 88.404 89.339 84.6987C88.5416 80.996 88.1443 76.8961 88.1443 72.4027V27.6947H108.107V68.7441C108.107 74.7481 109.042 79.2187 110.918 82.168C112.792 85.128 116.118 86.604 120.902 86.604C126.332 86.604 130.271 84.9774 132.708 81.7494C135.144 78.5107 136.363 73.1907 136.363 65.7947V27.6947H156.326V100.376" fill="white"/>
<path d="M192.03 100.376H172.071V27.6948H192.03V100.376ZM172.071 -2.65692e-05H192.03V16.4426H172.071V-2.65692e-05Z" fill="white"/>
<path d="M268.366 62.5667C268.366 46.5401 259.648 31.0734 242.36 31.0734C223.526 31.0734 214.807 44.4281 214.807 62.5667C214.807 80.2761 222.678 97.4281 242.36 97.4281C261.338 97.4281 268.366 79.1494 268.366 62.5667ZM209.323 0.0107401H214.666V43.44H214.947C219.026 32.2 230.692 26.4281 242.36 26.4281C263.584 26.4281 273.707 42.4547 273.707 62.5667C273.707 97.0094 252.338 102.059 242.36 102.059C223.383 102.059 216.072 88.0094 214.947 84.2107H214.666V100.376H209.323" fill="white"/>
<path d="M316.023 97.4268C334.162 97.4268 343.858 81.5414 343.858 64.2494C343.858 46.9588 334.162 31.0734 316.023 31.0734C297.891 31.0734 288.188 46.9588 288.188 64.2494C288.188 81.5414 297.891 97.4268 316.023 97.4268ZM316.023 26.4294C337.251 26.4294 349.199 43.7321 349.199 64.2494C349.199 84.7694 337.251 102.06 316.023 102.06C294.799 102.06 282.847 84.7694 282.847 64.2494C282.847 43.7321 294.799 26.4294 316.023 26.4294Z" fill="white"/>
<path d="M367.058 44.1493H367.476C370.287 34.732 382.096 27.1373 395.172 27.6946V33.036C389.552 32.34 381.679 33.7439 375.211 40.0626C369.868 45.5546 367.616 50.0479 367.058 60.8706V100.376H361.716V28.1133H367.058" fill="white"/>
<path d="M448.727 59.3268C444.514 64.1108 432.987 63.5414 422.588 64.9467C409.931 66.3627 402.766 70.8574 402.766 81.6814C402.766 90.3894 409.084 97.4268 421.74 97.4268C446.058 97.4268 448.727 76.6174 448.727 72.8201V59.3268ZM454.07 87.0214C454.07 91.2374 454.07 95.7441 458.855 95.7441C459.835 95.7441 461.1 95.5921 462.79 95.3134V99.8187C461.24 100.097 459.835 100.376 458.43 100.376C449.992 100.376 448.727 95.744 448.727 89.832V86.0347H448.448C445.076 94.6174 435.372 102.06 421.602 102.06C407.964 102.06 397.424 96.8574 397.424 81.6814C397.424 64.808 412.044 61.3001 423.994 60.3134C447.886 58.6307 448.867 57.0747 448.867 45.2641C448.867 42.0361 445.215 31.0747 428.766 31.0747C415.836 31.0747 407.26 37.8214 406.558 50.3268H401.216C401.92 34.4414 411.76 26.4294 428.766 26.4294C441.423 26.4294 454.07 30.3654 454.07 45.2641" fill="white"/>
<path d="M497.651 32.7574H481.908V83.2254C481.908 94.896 487.392 96.0213 497.511 95.7427V100.376C486.551 101.072 476.006 99.528 476.568 83.2254V32.7574H463.208V28.1134H476.568V5.6307H481.908V28.1134H497.651" fill="white"/>
<path d="M534.066 32.7574H518.32V83.2254C518.32 94.896 523.802 96.0213 533.923 95.7427V100.376C522.954 101.072 512.415 99.528 512.98 83.2254V32.7574H499.626V28.1134H512.98V5.6307H518.32V28.1134H534.066" fill="white"/>
<path d="M573.706 97.4268C591.839 97.4268 601.539 81.5414 601.539 64.2494C601.539 46.9588 591.839 31.0734 573.706 31.0734C555.572 31.0734 545.871 46.9588 545.871 64.2494C545.871 81.5414 555.572 97.4268 573.706 97.4268ZM573.706 26.4294C594.932 26.4294 606.882 43.7321 606.882 64.2494C606.882 84.7694 594.932 102.06 573.706 102.06C552.478 102.06 540.53 84.7694 540.53 64.2494C540.53 43.7321 552.478 26.4294 573.706 26.4294Z" fill="white"/>
</g>
<defs>
<clipPath id="clip0_1_28">
<rect width="606.882" height="127.792" fill="white"/>
</clipPath>
</defs>
</svg>
